<!DOCTYPE svg PUBLIC "-//W3C//DTD SVG 1.1//EN" "http://www.w3.org/Graphics/SVG/1.1/DTD/svg11.dtd">
<!-- Uploaded to: SVG Repo, www.svgrepo.com, Transformed by: SVG Repo Mixer Tools -->
<svg width="800px" height="800px" viewBox="0 0 24 24" fill="none" xmlns="http://www.w3.org/2000/svg" stroke="#1eb453">
<g id="SVGRepo_bgCarrier" stroke-width="0"/>
<g id="SVGRepo_tracerCarrier" stroke-linecap="round" stroke-linejoin="round"/>
<g id="SVGRepo_iconCarrier"> <path d="M8.5 12.5L10.5 14.5L15.5 9.5" stroke="#1eb453&lt;svg viewBox=" 0="" 24="" 24"="" id="verified" xmlns="http://www.w3.org/2000/svg" class="icon multi-color" fill="#1eb4531eb453">
<g id="SVGRepo_bgCarrier" stroke-width="0"/>
<g id="SVGRepo_tracerCarrier" stroke-linecap="round" stroke-linejoin="round"/>
<g id="SVGRepo_iconCarrier">
<title style="stroke-width: 2;">verified</title>
<path id="tertiary-fill" d="M20,10c-.68-.61-1.63-.89-2.31-1.48-.84-.76-1.43-2.23-2.44-2.64s-2.16.37-3.24.37-2.27-.76-3.25-.37S7.16,7.75,6.32,8.51C5.63,9.1,4.68,9.38,4,10a9.68,9.68,0,0,0,.12-1.13,4.23,4.23,0,0,1,.31-1.63A2.94,2.94,0,0,1,5.6,6.38,6.53,6.53,0,0,0,7,5.49,8.26,8.26,0,0,0,8.08,4.17,3.3,3.3,0,0,1,9.11,3a.75.75,0,0,1,.28,0,4.32,4.32,0,0,1,1,.21A6.35,6.35,0,0,0,12,3.48a6.27,6.27,0,0,0,1.56-.27A2.75,2.75,0,0,1,14.91,3a3.51,3.51,0,0,1,1,1.13A7.65,7.65,0,0,0,17,5.49a7.14,7.14,0,0,0,1.38.89,3.14,3.14,0,0,1,1.18.86,4.68,4.68,0,0,1,.3,1.63C19.91,9.21,19.94,9.6,20,10Z" style="fill: #1eb45317ab4b1eb453b7b7b7; stroke-width: 2;"/>
<path id="primary-stroke" d="M21.37,12c0,1-.86,1.79-1.14,2.67s-.1,2.08-.65,2.83-1.73.94-2.5,1.49-1.28,1.62-2.18,1.92S13,20.65,12,20.65s-2,.55-2.9.27S7.67,19.55,6.92,19,5,18.28,4.42,17.51s-.35-1.92-.65-2.83S2.63,13,2.63,12s.86-1.8,1.14-2.68.1-2.08.65-2.83S6.15,5.56,6.92,5,8.2,3.39,9.1,3.09s1.93.27,2.9.27,2-.55,2.9-.27S16.33,4.46,17.08,5s1.94.72,2.5,1.49.35,1.92.65,2.83S21.37,11,21.37,12Z" style="fill: none; stroke: #1eb45317ab4b1eb453; stroke-linecap: round; stroke-linejoin: round; stroke-width: 2;"/>
<polyline id="secondary-stroke" points="8 12 11 15 16 10" style="fill: none; stroke: #1eb45317ab4b1eb4532ca9bc; stroke-linecap: round; stroke-linejoin: round; stroke-width: 2;"/>
</g>" stroke-width="1.5" stroke-linecap="round" stroke-linejoin="round"&gt;</path> <path d="M3.02907 13.0776C2.7032 12.3958 2.7032 11.6032 3.02907 10.9214C3.16997 10.6266 3.41023 10.3447 3.89076 9.78084C4.08201 9.55642 4.17764 9.44421 4.25796 9.32437C4.44209 9.04965 4.56988 8.74114 4.63393 8.41669C4.66188 8.27515 4.6736 8.12819 4.69706 7.83426C4.75599 7.09576 4.78546 6.72651 4.89427 6.41844C5.14594 5.70591 5.7064 5.14546 6.41893 4.89378C6.72699 4.78497 7.09625 4.7555 7.83475 4.69657C8.12868 4.67312 8.27564 4.66139 8.41718 4.63344C8.74163 4.56939 9.05014 4.4416 9.32485 4.25747C9.4447 4.17715 9.55691 4.08152 9.78133 3.89027C10.3452 3.40974 10.6271 3.16948 10.9219 3.02859C11.6037 2.70271 12.3963 2.70271 13.0781 3.02859C13.3729 3.16948 13.6548 3.40974 14.2187 3.89027C14.4431 4.08152 14.5553 4.17715 14.6752 4.25747C14.9499 4.4416 15.2584 4.56939 15.5828 4.63344C15.7244 4.66139 15.8713 4.67312 16.1653 4.69657C16.9038 4.7555 17.273 4.78497 17.5811 4.89378C18.2936 5.14546 18.8541 5.70591 19.1058 6.41844M4.89427 17.5806C5.14594 18.2931 5.7064 18.8536 6.41893 19.1053C6.72699 19.2141 7.09625 19.2435 7.83475 19.3025C8.12868 19.3259 8.27564 19.3377 8.41718 19.3656C8.74163 19.4297 9.05014 19.5574 9.32485 19.7416C9.44469 19.8219 9.55691 19.9175 9.78133 20.1088C10.3452 20.5893 10.6271 20.8296 10.9219 20.9705C11.6037 21.2963 12.3963 21.2963 13.0781 20.9705C13.3729 20.8296 13.6548 20.5893 14.2187 20.1088C14.4431 19.9175 14.5553 19.8219 14.6752 19.7416C14.9499 19.5574 15.2584 19.4297 15.5828 19.3656C15.7244 19.3377 15.8713 19.3259 16.1653 19.3025C16.9038 19.2435 17.273 19.2141 17.5811 19.1053C18.2936 18.8536 18.8541 18.2931 19.1058 17.5806C19.2146 17.2725 19.244 16.9033 19.303 16.1648C19.3264 15.8709 19.3381 15.7239 19.3661 15.5824C19.4301 15.2579 19.5579 14.9494 19.7421 14.6747C19.8224 14.5548 19.918 14.4426 20.1093 14.2182C20.5898 13.6543 20.8301 13.3724 20.971 13.0776C21.2968 12.3958 21.2968 11.6032 20.971 10.9214" stroke="#1eb453&lt;svg viewBox=" 0="" 24="" 24"="" id="verified" xmlns="http://www.w3.org/2000/svg" class="icon multi-color" fill="#1eb4531eb453">
<g id="SVGRepo_bgCarrier" stroke-width="0"/>
<g id="SVGRepo_tracerCarrier" stroke-linecap="round" stroke-linejoin="round"/>
<g id="SVGRepo_iconCarrier">
<title style="stroke-width: 2;">verified</title>
<path id="tertiary-fill" d="M20,10c-.68-.61-1.63-.89-2.31-1.48-.84-.76-1.43-2.23-2.44-2.64s-2.16.37-3.24.37-2.27-.76-3.25-.37S7.16,7.75,6.32,8.51C5.63,9.1,4.68,9.38,4,10a9.68,9.68,0,0,0,.12-1.13,4.23,4.23,0,0,1,.31-1.63A2.94,2.94,0,0,1,5.6,6.38,6.53,6.53,0,0,0,7,5.49,8.26,8.26,0,0,0,8.08,4.17,3.3,3.3,0,0,1,9.11,3a.75.75,0,0,1,.28,0,4.32,4.32,0,0,1,1,.21A6.35,6.35,0,0,0,12,3.48a6.27,6.27,0,0,0,1.56-.27A2.75,2.75,0,0,1,14.91,3a3.51,3.51,0,0,1,1,1.13A7.65,7.65,0,0,0,17,5.49a7.14,7.14,0,0,0,1.38.89,3.14,3.14,0,0,1,1.18.86,4.68,4.68,0,0,1,.3,1.63C19.91,9.21,19.94,9.6,20,10Z" style="fill: #1eb45317ab4b1eb453b7b7b7; stroke-width: 2;"/>
<path id="primary-stroke" d="M21.37,12c0,1-.86,1.79-1.14,2.67s-.1,2.08-.65,2.83-1.73.94-2.5,1.49-1.28,1.62-2.18,1.92S13,20.65,12,20.65s-2,.55-2.9.27S7.67,19.55,6.92,19,5,18.28,4.42,17.51s-.35-1.92-.65-2.83S2.63,13,2.63,12s.86-1.8,1.14-2.68.1-2.08.65-2.83S6.15,5.56,6.92,5,8.2,3.39,9.1,3.09s1.93.27,2.9.27,2-.55,2.9-.27S16.33,4.46,17.08,5s1.94.72,2.5,1.49.35,1.92.65,2.83S21.37,11,21.37,12Z" style="fill: none; stroke: #1eb45317ab4b1eb453; stroke-linecap: round; stroke-linejoin: round; stroke-width: 2;"/>
<polyline id="secondary-stroke" points="8 12 11 15 16 10" style="fill: none; stroke: #1eb45317ab4b1eb4532ca9bc; stroke-linecap: round; stroke-linejoin: round; stroke-width: 2;"/>
</g>" stroke-width="1.5" stroke-linecap="round"&gt;</path> </g>
</svg>